# xmcd
#
# Track frame offsets:
#	150
#	19516
#	36106
#	50700
#	68219
#	86613
#	98869
#	112096
#	127896
#	142329
#	163307
#	177901
#
# Disc length: 2670 seconds
#
# Revision: 2
# Processed by: cddbd v1.5.2PL0 Copyright (c) Steve Scherf et al.
# Submitted via: audiograbber 1.83.01
#
DISCID=ab0a6c0c
DTITLE=Kathy O'Sullivan - Wrong Side Of 30
DYEAR=1980
DGENRE=
TTITLE0=Wrong Side Of 30
TTITLE1=ESP
TTITLE2=Partners In Love
TTITLE3=Going Away
TTITLE4=Aimee's Song
TTITLE5=I'll Be Damned
TTITLE6=Rolin' Over
TTITLE7=Lifetime Guaratee
TTITLE8=Good Idea
TTITLE9=Mamma He's Crazy
TTITLE10=Beginner's Luck
TTITLE11=Is It Right
EXTD=
EXTT0=
EXTT1=
EXTT2=
EXTT3=
EXTT4=
EXTT5=
EXTT6=
EXTT7=
EXTT8=
EXTT9=
EXTT10=
EXTT11=
PLAYORDER=
